<svg xmlns:dc="http://purl.org/dc/elements/1.1/" xmlns:cc="http://creativecommons.org/ns#" xmlns:rdf="http://www.w3.org/1999/02/22-rdf-syntax-ns#" xmlns:svg="http://www.w3.org/2000/svg" xmlns="http://www.w3.org/2000/svg" xmlns:xlink="http://www.w3.org/1999/xlink" id="svg125051" version="1.1" viewBox="56.53 319.18 910.94 129.64">
  <metadata id="metadata125057" fill="#FFFFFF">
    <rdf:rdf fill="#FFFFFF">
      <cc:work rdf:about="" fill="#FFFFFF">
        <dc:format fill="#FFFFFF">image/svg+xml</dc:format>
        <dc:type rdf:resource="http://purl.org/dc/dcmitype/StillImage" fill="#FFFFFF"/>
      </cc:work>
    </rdf:rdf>
  </metadata>
  <defs id="defs125055"/>
  <linearGradient spreadMethod="pad" y2="30%" x2="-10%" y1="120%" x1="30%" id="3d_gradient2-logo-f2949677-bf11-41ea-a073-768096f81b14" fill="#FFFFFF">
    <stop id="stop125032" stop-opacity="1" stop-color="#ffffff" offset="0%" fill="#FFFFFF"/>
    <stop id="stop125034" stop-opacity="1" stop-color="#000000" offset="100%" fill="#FFFFFF"/>
  </linearGradient>
  <linearGradient gradientTransform="rotate(-30)" spreadMethod="pad" y2="30%" x2="-10%" y1="120%" x1="30%" id="3d_gradient3-logo-f2949677-bf11-41ea-a073-768096f81b14" fill="#FFFFFF">
    <stop id="stop125037" stop-opacity="1" stop-color="#ffffff" offset="0%" fill="#FFFFFF"/>
    <stop id="stop125039" stop-opacity="1" stop-color="#cccccc" offset="50%" fill="#FFFFFF"/>
    <stop id="stop125041" stop-opacity="1" stop-color="#000000" offset="100%" fill="#FFFFFF"/>
  </linearGradient>
  <g id="logo-group" fill="#FFFFFF">
    <image xlink:href="" id="container" x="272" y="144" width="480" height="480" style="display: none;" transform="translate(0 0)" fill="#FFFFFF"/>
    <g id="logo-center" transform="translate(-1.1368683772161603e-13 0)" fill="#FFFFFF">
      <image xlink:href="" id="icon_container" x="0" y="0" style="display: none;" fill="#FFFFFF"/>
      <g id="slogan" style="font-style:oblique;font-weight:normal;font-size:32px;line-height:1;font-family:'Fira Sans Condensed';font-variant-ligatures:none;text-align:center;text-anchor:middle" transform="translate(0 0)" fill="#FFFFFF"/>
      <g id="title" style="font-style:normal;font-weight:normal;font-size:72px;line-height:1;font-family:'Brandmark Sans 30 Bold';font-variant-ligatures:normal;text-align:center;text-anchor:middle" transform="translate(0 0)" fill="#FFFFFF">
        <path id="path125060" style="font-style:normal;font-weight:normal;font-size:72px;line-height:1;font-family:'Brandmark Sans 30 Bold';font-variant-ligatures:normal;text-align:center;text-anchor:middle" d="m 375.9065,-25.92 h -11.016 v 9.36 L 379.1465,0 h 12.384 l -14.256,-16.56 h -1.368 c 9.216,0 14.76,-5.904 14.76,-14.76 0,-9.216 -5.976,-14.688 -14.76,-14.688 h -23.76 V 0 h 9.36 v -36.648 h 14.4 c 4.536,0 5.4,0.792 5.4,5.328 0,4.464 -0.864,5.4 -5.4,5.4 z" stroke-width="0px" stroke-linejoin="miter" stroke-miterlimit="2" fill="#0000FF" stroke="#0000FF" transform="translate(0 351.3808) translate(56.53218245000011 -31.002160000000003) scale(2.77) translate(-352.1465 46.008)"/>
        <path id="path125062" style="font-style:normal;font-weight:normal;font-size:72px;line-height:1;font-family:'Brandmark Sans 30 Bold';font-variant-ligatures:normal;text-align:center;text-anchor:middle" d="m 404.04388,0 0.072,-33.84 h -9.36001 V 0 Z m -9.28801,-36.72 h 9.36001 v -9.36 h -9.36001 z" stroke-width="0px" stroke-linejoin="miter" stroke-miterlimit="2" fill="#0000FF" stroke="#0000FF" transform="translate(0 351.3808) translate(178.1611373500001 -31.2016) scale(2.77) translate(-394.75587 46.08)"/>
        <path id="path125064" style="font-style:normal;font-weight:normal;font-size:72px;line-height:1;font-family:'Brandmark Sans 30 Bold';font-variant-ligatures:normal;text-align:center;text-anchor:middle" d="m 428.7275,-17.136 h -11.088 L 406.5515,0 h 11.088 z m -21.312,-28.944 18,24.264 15.48,21.816 h 11.52 l -17.064,-23.976 15.912,-22.104 h -11.52 l -10.152,14.112 -10.512,-14.112 z" stroke-width="0px" stroke-linejoin="miter" stroke-miterlimit="2" fill="#0000FF" stroke="#0000FF" transform="translate(0 351.3808) translate(214.43603245000003 -31.2016) scale(2.77) translate(-406.5515 46.08)"/>
        <path id="path125066" style="font-style:normal;font-weight:normal;font-size:72px;line-height:1;font-family:'Brandmark Sans 30 Bold';font-variant-ligatures:normal;text-align:center;text-anchor:middle" d="m 501.43063,-25.416 h -19.22401 v 9.36 h 9.576 c -0.71999,6.624 -2.952,7.056 -10.00799,7.056 -9.72001,0 -10.44,-0.936 -10.44,-14.112 0,-13.464 0.50399,-13.968 10.44,-13.968 7.632,0 8.35199,0.288 9.50399,5.688 h 9.504 c -1.728,-10.44 -7.488,-15.048 -19.00799,-15.048 -14.11201,0 -19.80001,6.264 -19.80001,23.328 0,16.416 5.472,23.472 19.80001,23.472 13.39199,0 19.656,-6.264 19.656,-25.776 z" stroke-width="0px" stroke-linejoin="miter" stroke-miterlimit="2" fill="#F67A09" stroke="#F67A09" transform="translate(0 351.3808) translate(371.5590748500002 -32.198800000000006) scale(2.77) translate(-461.97462 46.44)"/>
        <path id="path125068" style="font-style:normal;font-weight:normal;font-size:72px;line-height:1;font-family:'Brandmark Sans 30 Bold';font-variant-ligatures:normal;text-align:center;text-anchor:middle" d="m 528.344,-25.92 h -11.016 v 9.36 L 531.584,0 h 12.384 l -14.256,-16.56 h -1.368 c 9.216,0 14.76,-5.904 14.76,-14.76 0,-9.216 -5.976,-14.688 -14.76,-14.688 h -23.76 V 0 h 9.36 v -36.648 h 14.4 c 4.536,0 5.4,0.792 5.4,5.328 0,4.464 -0.864,5.4 -5.4,5.4 z" stroke-width="0px" stroke-linejoin="miter" stroke-miterlimit="2" fill="#FF7C00" stroke="#FF7C00" transform="translate(0 351.3808) translate(493.1880574500002 -31.002160000000003) scale(2.77) translate(-504.584 46.008)"/>
        <path id="path125070" style="font-style:normal;font-weight:normal;font-size:72px;line-height:1;font-family:'Brandmark Sans 30 Bold';font-variant-ligatures:normal;text-align:center;text-anchor:middle" d="m 567.92938,-9 c -9.36,0 -11.37601,-2.592 -11.37601,-14.112 0,-11.736 2.01601,-13.968 11.37601,-13.968 9.14399,0 11.16,2.592 11.16,13.968 0,11.376 -2.448,14.112 -11.16,14.112 z m -20.73601,-14.112 c 0,15.408 6.192,23.472 20.73601,23.472 13.46399,0 20.52,-7.776 20.52,-23.472 0,-15.264 -6.192,-23.328 -20.52,-23.328 -14.04001,0 -20.73601,7.128 -20.73601,23.328 z" stroke-width="0px" stroke-linejoin="miter" stroke-miterlimit="2" fill="#FF7C00" stroke="#FF7C00" transform="translate(0 351.3808) translate(614.8170123500003 -32.198800000000006) scale(2.77) translate(-547.19337 46.44)"/>
        <path id="path125072" style="font-style:normal;font-weight:normal;font-size:72px;line-height:1;font-family:'Brandmark Sans 30 Bold';font-variant-ligatures:normal;text-align:center;text-anchor:middle" d="M 600.99087,-21.384 V -46.08 h -9.36 v 24.696 c 0,15.552 6.552,21.744 21.096,21.744 14.90401,0 20.952,-6.264 20.952,-21.744 V -46.08 h -9.35999 v 24.696 c 0,10.944 -1.36801,12.384 -11.59201,12.384 -10.15199,0 -11.736,-1.584 -11.736,-12.384 z" stroke-width="0px" stroke-linejoin="miter" stroke-miterlimit="2" fill="#FF7C00" stroke="#FF7C00" transform="translate(0 351.3808) translate(741.50988735 -31.2016) scale(2.77) translate(-591.63087 46.08)"/>
        <path id="path125074" style="font-style:normal;font-weight:normal;font-size:72px;line-height:1;font-family:'Brandmark Sans 30 Bold';font-variant-ligatures:normal;text-align:center;text-anchor:middle" d="m 656.85613,-46.008 h -19.94401 v 9.36 h 19.94401 c 4.67999,0 5.68799,0.936 5.68799,5.616 0,4.608 -1.008,5.688 -5.68799,5.688 H 636.91212 V 0 h 9.36 v -15.984 h 10.58401 c 9.36,0 15.048,-6.048 15.048,-15.048 0,-9.504 -6.12,-14.976 -15.048,-14.976 z" stroke-width="0px" stroke-linejoin="miter" stroke-miterlimit="2" fill="#FF7C00" stroke="#FF7C00" transform="translate(0 351.3808) translate(870.53994985 -31.002160000000003) scale(2.77) translate(-636.91212 46.008)"/>
      </g>
      <image xlink:href="" id="icon" x="0" y="0" style="display: none;" fill="#FFFFFF"/>
    </g>
  </g>
</svg>